<mxfile host="app.diagrams.net" modified="2021-06-06T12:35:27.444Z" agent="5.0 (Windows NT 10.0; Win64; x64) AppleWebKit/537.36 (KHTML, like Gecko) Chrome/91.0.4472.77 Safari/537.36 Edg/91.0.864.41" etag="aQSc9YibyAfxRCUmZExQ" version="14.7.6" type="github">
  <diagram id="a430szO_g4folWIIHz0O" name="第 1 页">
    <mxGraphModel dx="1093" dy="656" grid="1" gridSize="10" guides="1" tooltips="1" connect="1" arrows="1" fold="1" page="1" pageScale="1" pageWidth="1169" pageHeight="827" math="0" shadow="0">
      <root>
        <mxCell id="0" />
        <mxCell id="1" parent="0" />
        <mxCell id="orhUgqsFpgOteOpga_pN-47" value="" style="rounded=1;whiteSpace=wrap;html=1;shadow=0;fontSize=20;arcSize=4;" vertex="1" parent="1">
          <mxGeometry x="70" y="330" width="470" height="400" as="geometry" />
        </mxCell>
        <mxCell id="orhUgqsFpgOteOpga_pN-5" value="" style="group;fillColor=#dae8fc;strokeColor=#6c8ebf;" vertex="1" connectable="0" parent="1">
          <mxGeometry x="90" y="170" width="80" height="40" as="geometry" />
        </mxCell>
        <mxCell id="orhUgqsFpgOteOpga_pN-3" value="&lt;font style=&quot;font-size: 20px&quot;&gt;1&lt;/font&gt;" style="rounded=0;whiteSpace=wrap;html=1;fillColor=#dae8fc;strokeColor=#6c8ebf;" vertex="1" parent="orhUgqsFpgOteOpga_pN-5">
          <mxGeometry width="40" height="40" as="geometry" />
        </mxCell>
        <mxCell id="orhUgqsFpgOteOpga_pN-4" value="" style="rounded=0;whiteSpace=wrap;html=1;fillColor=#dae8fc;strokeColor=#6c8ebf;" vertex="1" parent="orhUgqsFpgOteOpga_pN-5">
          <mxGeometry x="40" width="40" height="40" as="geometry" />
        </mxCell>
        <mxCell id="orhUgqsFpgOteOpga_pN-22" value="" style="ellipse;whiteSpace=wrap;html=1;aspect=fixed;fillColor=#dae8fc;strokeColor=#6c8ebf;" vertex="1" parent="orhUgqsFpgOteOpga_pN-5">
          <mxGeometry x="55" y="15" width="10" height="10" as="geometry" />
        </mxCell>
        <mxCell id="orhUgqsFpgOteOpga_pN-6" value="" style="group;fillColor=#dae8fc;strokeColor=#6c8ebf;" vertex="1" connectable="0" parent="1">
          <mxGeometry x="210" y="170" width="80" height="40" as="geometry" />
        </mxCell>
        <mxCell id="orhUgqsFpgOteOpga_pN-7" value="&lt;font style=&quot;font-size: 20px&quot;&gt;3&lt;/font&gt;" style="rounded=0;whiteSpace=wrap;html=1;fillColor=#dae8fc;strokeColor=#6c8ebf;" vertex="1" parent="orhUgqsFpgOteOpga_pN-6">
          <mxGeometry width="40" height="40" as="geometry" />
        </mxCell>
        <mxCell id="orhUgqsFpgOteOpga_pN-8" value="" style="rounded=0;whiteSpace=wrap;html=1;fillColor=#dae8fc;strokeColor=#6c8ebf;" vertex="1" parent="orhUgqsFpgOteOpga_pN-6">
          <mxGeometry x="40" width="40" height="40" as="geometry" />
        </mxCell>
        <mxCell id="orhUgqsFpgOteOpga_pN-23" value="" style="ellipse;whiteSpace=wrap;html=1;aspect=fixed;fillColor=#dae8fc;strokeColor=#6c8ebf;" vertex="1" parent="orhUgqsFpgOteOpga_pN-6">
          <mxGeometry x="55" y="15" width="10" height="10" as="geometry" />
        </mxCell>
        <mxCell id="orhUgqsFpgOteOpga_pN-9" value="" style="group;fillColor=#dae8fc;strokeColor=#6c8ebf;" vertex="1" connectable="0" parent="1">
          <mxGeometry x="330" y="170" width="80" height="40" as="geometry" />
        </mxCell>
        <mxCell id="orhUgqsFpgOteOpga_pN-10" value="&lt;font style=&quot;font-size: 20px&quot;&gt;5&lt;/font&gt;" style="rounded=0;whiteSpace=wrap;html=1;fillColor=#dae8fc;strokeColor=#6c8ebf;" vertex="1" parent="orhUgqsFpgOteOpga_pN-9">
          <mxGeometry width="40" height="40" as="geometry" />
        </mxCell>
        <mxCell id="orhUgqsFpgOteOpga_pN-11" value="" style="rounded=0;whiteSpace=wrap;html=1;fillColor=#dae8fc;strokeColor=#6c8ebf;" vertex="1" parent="orhUgqsFpgOteOpga_pN-9">
          <mxGeometry x="40" width="40" height="40" as="geometry" />
        </mxCell>
        <mxCell id="orhUgqsFpgOteOpga_pN-24" value="" style="ellipse;whiteSpace=wrap;html=1;aspect=fixed;fillColor=#dae8fc;strokeColor=#6c8ebf;" vertex="1" parent="orhUgqsFpgOteOpga_pN-9">
          <mxGeometry x="55" y="15" width="10" height="10" as="geometry" />
        </mxCell>
        <mxCell id="orhUgqsFpgOteOpga_pN-12" value="" style="group;fillColor=#dae8fc;strokeColor=#6c8ebf;" vertex="1" connectable="0" parent="1">
          <mxGeometry x="440" y="170" width="80" height="40" as="geometry" />
        </mxCell>
        <mxCell id="orhUgqsFpgOteOpga_pN-13" value="&lt;font style=&quot;font-size: 20px&quot;&gt;7&lt;/font&gt;" style="rounded=0;whiteSpace=wrap;html=1;fillColor=#dae8fc;strokeColor=#6c8ebf;" vertex="1" parent="orhUgqsFpgOteOpga_pN-12">
          <mxGeometry width="40" height="40" as="geometry" />
        </mxCell>
        <mxCell id="orhUgqsFpgOteOpga_pN-14" value="" style="rounded=0;whiteSpace=wrap;html=1;fillColor=#dae8fc;strokeColor=#6c8ebf;" vertex="1" parent="orhUgqsFpgOteOpga_pN-12">
          <mxGeometry x="40" width="40" height="40" as="geometry" />
        </mxCell>
        <mxCell id="orhUgqsFpgOteOpga_pN-25" value="" style="ellipse;whiteSpace=wrap;html=1;aspect=fixed;fillColor=#dae8fc;strokeColor=#6c8ebf;" vertex="1" parent="orhUgqsFpgOteOpga_pN-12">
          <mxGeometry x="55" y="15" width="10" height="10" as="geometry" />
        </mxCell>
        <mxCell id="orhUgqsFpgOteOpga_pN-15" value="" style="group;fillColor=#d5e8d4;strokeColor=#82b366;" vertex="1" connectable="0" parent="1">
          <mxGeometry x="90" y="240" width="80" height="40" as="geometry" />
        </mxCell>
        <mxCell id="orhUgqsFpgOteOpga_pN-16" value="&lt;span style=&quot;font-size: 20px&quot;&gt;2&lt;/span&gt;" style="rounded=0;whiteSpace=wrap;html=1;fillColor=#d5e8d4;strokeColor=#82b366;" vertex="1" parent="orhUgqsFpgOteOpga_pN-15">
          <mxGeometry width="40" height="40" as="geometry" />
        </mxCell>
        <mxCell id="orhUgqsFpgOteOpga_pN-17" value="" style="rounded=0;whiteSpace=wrap;html=1;fillColor=#d5e8d4;strokeColor=#82b366;" vertex="1" parent="orhUgqsFpgOteOpga_pN-15">
          <mxGeometry x="40" width="40" height="40" as="geometry" />
        </mxCell>
        <mxCell id="orhUgqsFpgOteOpga_pN-26" value="" style="ellipse;whiteSpace=wrap;html=1;aspect=fixed;fillColor=#d5e8d4;strokeColor=#82b366;" vertex="1" parent="orhUgqsFpgOteOpga_pN-15">
          <mxGeometry x="55" y="15" width="10" height="10" as="geometry" />
        </mxCell>
        <mxCell id="orhUgqsFpgOteOpga_pN-18" value="" style="group;fillColor=#d5e8d4;strokeColor=#82b366;" vertex="1" connectable="0" parent="1">
          <mxGeometry x="210" y="240" width="80" height="40" as="geometry" />
        </mxCell>
        <mxCell id="orhUgqsFpgOteOpga_pN-19" value="&lt;span style=&quot;font-size: 20px&quot;&gt;4&lt;/span&gt;" style="rounded=0;whiteSpace=wrap;html=1;fillColor=#d5e8d4;strokeColor=#82b366;" vertex="1" parent="orhUgqsFpgOteOpga_pN-18">
          <mxGeometry width="40" height="40" as="geometry" />
        </mxCell>
        <mxCell id="orhUgqsFpgOteOpga_pN-20" value="" style="rounded=0;whiteSpace=wrap;html=1;fillColor=#d5e8d4;strokeColor=#82b366;" vertex="1" parent="orhUgqsFpgOteOpga_pN-18">
          <mxGeometry x="40" width="40" height="40" as="geometry" />
        </mxCell>
        <mxCell id="orhUgqsFpgOteOpga_pN-27" value="" style="ellipse;whiteSpace=wrap;html=1;aspect=fixed;fillColor=#d5e8d4;strokeColor=#82b366;" vertex="1" parent="orhUgqsFpgOteOpga_pN-18">
          <mxGeometry x="55" y="15" width="10" height="10" as="geometry" />
        </mxCell>
        <mxCell id="orhUgqsFpgOteOpga_pN-28" style="edgeStyle=none;rounded=0;orthogonalLoop=1;jettySize=auto;html=1;exitX=1;exitY=0.5;exitDx=0;exitDy=0;entryX=0;entryY=0.5;entryDx=0;entryDy=0;endArrow=classic;endFill=1;fillColor=#dae8fc;strokeColor=#6c8ebf;" edge="1" parent="1" source="orhUgqsFpgOteOpga_pN-22" target="orhUgqsFpgOteOpga_pN-7">
          <mxGeometry relative="1" as="geometry" />
        </mxCell>
        <mxCell id="orhUgqsFpgOteOpga_pN-29" style="edgeStyle=none;rounded=0;orthogonalLoop=1;jettySize=auto;html=1;exitX=1;exitY=0.5;exitDx=0;exitDy=0;entryX=0;entryY=0.5;entryDx=0;entryDy=0;endArrow=classic;endFill=1;fillColor=#dae8fc;strokeColor=#6c8ebf;" edge="1" parent="1" source="orhUgqsFpgOteOpga_pN-23" target="orhUgqsFpgOteOpga_pN-10">
          <mxGeometry relative="1" as="geometry" />
        </mxCell>
        <mxCell id="orhUgqsFpgOteOpga_pN-30" style="edgeStyle=none;rounded=0;orthogonalLoop=1;jettySize=auto;html=1;exitX=1;exitY=0.5;exitDx=0;exitDy=0;entryX=0;entryY=0.5;entryDx=0;entryDy=0;endArrow=classic;endFill=1;fillColor=#dae8fc;strokeColor=#6c8ebf;" edge="1" parent="1" source="orhUgqsFpgOteOpga_pN-24" target="orhUgqsFpgOteOpga_pN-13">
          <mxGeometry relative="1" as="geometry" />
        </mxCell>
        <mxCell id="orhUgqsFpgOteOpga_pN-31" style="edgeStyle=none;rounded=0;orthogonalLoop=1;jettySize=auto;html=1;exitX=1;exitY=0.5;exitDx=0;exitDy=0;endArrow=classic;endFill=1;fillColor=#dae8fc;strokeColor=#6c8ebf;" edge="1" parent="1" source="orhUgqsFpgOteOpga_pN-25">
          <mxGeometry relative="1" as="geometry">
            <mxPoint x="550.9523809523811" y="190.19047619047615" as="targetPoint" />
          </mxGeometry>
        </mxCell>
        <mxCell id="orhUgqsFpgOteOpga_pN-32" style="edgeStyle=none;rounded=0;orthogonalLoop=1;jettySize=auto;html=1;exitX=1;exitY=0.5;exitDx=0;exitDy=0;entryX=0;entryY=0.5;entryDx=0;entryDy=0;endArrow=classic;endFill=1;fillColor=#d5e8d4;strokeColor=#82b366;" edge="1" parent="1" source="orhUgqsFpgOteOpga_pN-26" target="orhUgqsFpgOteOpga_pN-19">
          <mxGeometry relative="1" as="geometry" />
        </mxCell>
        <mxCell id="orhUgqsFpgOteOpga_pN-33" style="edgeStyle=none;rounded=0;orthogonalLoop=1;jettySize=auto;html=1;exitX=1;exitY=0.5;exitDx=0;exitDy=0;endArrow=classic;endFill=1;fillColor=#d5e8d4;strokeColor=#82b366;entryX=0;entryY=0.5;entryDx=0;entryDy=0;" edge="1" parent="1" source="orhUgqsFpgOteOpga_pN-27" target="orhUgqsFpgOteOpga_pN-38">
          <mxGeometry relative="1" as="geometry">
            <mxPoint x="330" y="260.19047619047615" as="targetPoint" />
          </mxGeometry>
        </mxCell>
        <mxCell id="orhUgqsFpgOteOpga_pN-36" style="edgeStyle=none;rounded=0;orthogonalLoop=1;jettySize=auto;html=1;exitX=1;exitY=0.5;exitDx=0;exitDy=0;entryX=0;entryY=0.5;entryDx=0;entryDy=0;fontSize=20;endArrow=classic;endFill=1;" edge="1" parent="1" source="orhUgqsFpgOteOpga_pN-34" target="orhUgqsFpgOteOpga_pN-3">
          <mxGeometry relative="1" as="geometry" />
        </mxCell>
        <mxCell id="orhUgqsFpgOteOpga_pN-34" value="L1" style="text;html=1;strokeColor=none;fillColor=none;align=center;verticalAlign=middle;whiteSpace=wrap;rounded=0;fontSize=20;" vertex="1" parent="1">
          <mxGeometry x="20" y="180" width="40" height="20" as="geometry" />
        </mxCell>
        <mxCell id="orhUgqsFpgOteOpga_pN-37" style="edgeStyle=none;rounded=0;orthogonalLoop=1;jettySize=auto;html=1;exitX=1;exitY=0.5;exitDx=0;exitDy=0;entryX=0;entryY=0.5;entryDx=0;entryDy=0;fontSize=20;endArrow=classic;endFill=1;" edge="1" parent="1" source="orhUgqsFpgOteOpga_pN-35" target="orhUgqsFpgOteOpga_pN-16">
          <mxGeometry relative="1" as="geometry" />
        </mxCell>
        <mxCell id="orhUgqsFpgOteOpga_pN-35" value="L2" style="text;html=1;strokeColor=none;fillColor=none;align=center;verticalAlign=middle;whiteSpace=wrap;rounded=0;fontSize=20;" vertex="1" parent="1">
          <mxGeometry x="20" y="250" width="40" height="20" as="geometry" />
        </mxCell>
        <mxCell id="orhUgqsFpgOteOpga_pN-38" value="None" style="text;html=1;strokeColor=none;fillColor=none;align=center;verticalAlign=middle;whiteSpace=wrap;rounded=0;fontSize=20;" vertex="1" parent="1">
          <mxGeometry x="330" y="250" width="50" height="20" as="geometry" />
        </mxCell>
        <mxCell id="orhUgqsFpgOteOpga_pN-40" value="None" style="text;html=1;strokeColor=none;fillColor=none;align=center;verticalAlign=middle;whiteSpace=wrap;rounded=0;fontSize=20;" vertex="1" parent="1">
          <mxGeometry x="550" y="180" width="50" height="20" as="geometry" />
        </mxCell>
        <mxCell id="orhUgqsFpgOteOpga_pN-41" value="merge([1, 3, 5, 7], [2, 4])&lt;br&gt;= [1] + merge([3, 5, 7], [2, 4])" style="text;html=1;strokeColor=#9673a6;fillColor=#e1d5e7;align=left;verticalAlign=middle;whiteSpace=wrap;rounded=0;fontSize=20;" vertex="1" parent="1">
          <mxGeometry x="110" y="360" width="260" height="60" as="geometry" />
        </mxCell>
        <mxCell id="orhUgqsFpgOteOpga_pN-42" value="merge([3, 5, 7], [2, 4])&lt;br&gt;= [2] + merge([3, 5, 7], [4])" style="text;html=1;strokeColor=#6c8ebf;fillColor=#dae8fc;align=left;verticalAlign=middle;whiteSpace=wrap;rounded=0;fontSize=20;" vertex="1" parent="1">
          <mxGeometry x="170" y="430" width="240" height="60" as="geometry" />
        </mxCell>
        <mxCell id="orhUgqsFpgOteOpga_pN-43" value="merge([3, 5, 7], [4])&lt;br&gt;= [3] + merge([5, 7], [4])" style="text;html=1;strokeColor=#82b366;fillColor=#d5e8d4;align=left;verticalAlign=middle;whiteSpace=wrap;rounded=0;fontSize=20;" vertex="1" parent="1">
          <mxGeometry x="230" y="500" width="220" height="60" as="geometry" />
        </mxCell>
        <mxCell id="orhUgqsFpgOteOpga_pN-44" value="merge([5, 7], [4])&lt;br&gt;= [4] + merge([5, 7], [])" style="text;html=1;strokeColor=#d79b00;fillColor=#ffe6cc;align=left;verticalAlign=middle;whiteSpace=wrap;rounded=0;fontSize=20;" vertex="1" parent="1">
          <mxGeometry x="290" y="570" width="205" height="60" as="geometry" />
        </mxCell>
        <mxCell id="orhUgqsFpgOteOpga_pN-45" value="merge([5, 7], [])&lt;br&gt;= [5, 7]" style="text;html=1;strokeColor=#b85450;fillColor=#f8cecc;align=left;verticalAlign=middle;whiteSpace=wrap;rounded=0;fontSize=20;" vertex="1" parent="1">
          <mxGeometry x="360" y="640" width="150" height="60" as="geometry" />
        </mxCell>
      </root>
    </mxGraphModel>
  </diagram>
</mxfile>
